<svg width="1440" height="800" viewBox="0 0 1440 800" fill="none" xmlns="http://www.w3.org/2000/svg">
  <!-- World map dots pattern -->
  <g opacity="0.8">
    <!-- Africa -->
    <circle cx="720" cy="400" r="4" fill="white"/>
    <circle cx="705" cy="385" r="3" fill="white"/>
    <circle cx="735" cy="415" r="3" fill="white"/>
    <circle cx="690" cy="400" r="2" fill="white"/>
    <circle cx="750" cy="400" r="2" fill="white"/>
    <circle cx="720" cy="370" r="3" fill="white"/>
    <circle cx="720" cy="430" r="3" fill="white"/>
    <circle cx="680" cy="380" r="2" fill="white"/>
    <circle cx="760" cy="420" r="2" fill="white"/>
    <circle cx="700" cy="420" r="3" fill="white"/>
    <circle cx="740" cy="380" r="3" fill="white"/>
    <circle cx="720" cy="450" r="2" fill="white"/>
    <circle cx="720" cy="350" r="2" fill="white"/>
    <circle cx="765" cy="400" r="1" fill="white"/>
    <circle cx="675" cy="400" r="1" fill="white"/>
    <circle cx="680" cy="420" r="2" fill="white"/>
    <circle cx="760" cy="380" r="2" fill="white"/>
    
    <!-- Europe -->
    <circle cx="600" cy="300" r="4" fill="white"/>
    <circle cx="620" cy="290" r="3" fill="white"/>
    <circle cx="580" cy="310" r="3" fill="white"/>
    <circle cx="640" cy="300" r="2" fill="white"/>
    <circle cx="560" cy="300" r="2" fill="white"/>
    <circle cx="600" cy="270" r="3" fill="white"/>
    <circle cx="600" cy="330" r="3" fill="white"/>
    <circle cx="560" cy="280" r="2" fill="white"/>
    <circle cx="640" cy="320" r="2" fill="white"/>
    <circle cx="620" cy="320" r="3" fill="white"/>
    <circle cx="580" cy="280" r="3" fill="white"/>
    <circle cx="600" cy="250" r="2" fill="white"/>
    <circle cx="600" cy="350" r="2" fill="white"/>
    <circle cx="655" cy="300" r="1" fill="white"/>
    <circle cx="545" cy="300" r="1" fill="white"/>
    <circle cx="560" cy="320" r="2" fill="white"/>
    <circle cx="640" cy="280" r="2" fill="white"/>
    
    <!-- Asia -->
    <circle cx="800" cy="300" r="4" fill="white"/>
    <circle cx="820" cy="290" r="3" fill="white"/>
    <circle cx="780" cy="310" r="3" fill="white"/>
    <circle cx="840" cy="300" r="2" fill="white"/>
    <circle cx="760" cy="300" r="2" fill="white"/>
    <circle cx="800" cy="270" r="3" fill="white"/>
    <circle cx="800" cy="330" r="3" fill="white"/>
    <circle cx="760" cy="280" r="2" fill="white"/>
    <circle cx="840" cy="320" r="2" fill="white"/>
    <circle cx="820" cy="320" r="3" fill="white"/>
    <circle cx="780" cy="280" r="3" fill="white"/>
    <circle cx="800" cy="250" r="2" fill="white"/>
    <circle cx="800" cy="350" r="2" fill="white"/>
    <circle cx="855" cy="300" r="1" fill="white"/>
    <circle cx="745" cy="300" r="1" fill="white"/>
    <circle cx="760" cy="320" r="2" fill="white"/>
    <circle cx="840" cy="280" r="2" fill="white"/>
    
    <!-- North America -->
    <circle cx="400" cy="300" r="4" fill="white"/>
    <circle cx="420" cy="290" r="3" fill="white"/>
    <circle cx="380" cy="310" r="3" fill="white"/>
    <circle cx="440" cy="300" r="2" fill="white"/>
    <circle cx="360" cy="300" r="2" fill="white"/>
    <circle cx="400" cy="270" r="3" fill="white"/>
    <circle cx="400" cy="330" r="3" fill="white"/>
    <circle cx="360" cy="280" r="2" fill="white"/>
    <circle cx="440" cy="320" r="2" fill="white"/>
    <circle cx="420" cy="320" r="3" fill="white"/>
    <circle cx="380" cy="280" r="3" fill="white"/>
    <circle cx="400" cy="250" r="2" fill="white"/>
    <circle cx="400" cy="350" r="2" fill="white"/>
    <circle cx="455" cy="300" r="1" fill="white"/>
    <circle cx="345" cy="300" r="1" fill="white"/>
    <circle cx="360" cy="320" r="2" fill="white"/>
    <circle cx="440" cy="280" r="2" fill="white"/>
    
    <!-- South America -->
    <circle cx="450" cy="480" r="4" fill="white"/>
    <circle cx="470" cy="490" r="3" fill="white"/>
    <circle cx="430" cy="470" r="3" fill="white"/>
    <circle cx="490" cy="480" r="2" fill="white"/>
    <circle cx="410" cy="480" r="2" fill="white"/>
    <circle cx="450" cy="510" r="3" fill="white"/>
    <circle cx="450" cy="450" r="3" fill="white"/>
    <circle cx="410" cy="500" r="2" fill="white"/>
    <circle cx="490" cy="460" r="2" fill="white"/>
    <circle cx="470" cy="460" r="3" fill="white"/>
    <circle cx="430" cy="500" r="3" fill="white"/>
    <circle cx="450" cy="530" r="2" fill="white"/>
    <circle cx="450" cy="430" r="2" fill="white"/>
    <circle cx="505" cy="480" r="1" fill="white"/>
    <circle cx="395" cy="480" r="1" fill="white"/>
    <circle cx="410" cy="460" r="2" fill="white"/>
    <circle cx="490" cy="500" r="2" fill="white"/>
    
    <!-- Australia -->
    <circle cx="900" cy="500" r="4" fill="white"/>
    <circle cx="920" cy="490" r="3" fill="white"/>
    <circle cx="880" cy="510" r="3" fill="white"/>
    <circle cx="940" cy="500" r="2" fill="white"/>
    <circle cx="860" cy="500" r="2" fill="white"/>
    <circle cx="900" cy="470" r="3" fill="white"/>
    <circle cx="900" cy="530" r="3" fill="white"/>
    <circle cx="860" cy="480" r="2" fill="white"/>
    <circle cx="940" cy="520" r="2" fill="white"/>
    <circle cx="920" cy="520" r="3" fill="white"/>
    <circle cx="880" cy="480" r="3" fill="white"/>
    <circle cx="900" cy="450" r="2" fill="white"/>
    <circle cx="900" cy="550" r="2" fill="white"/>
    <circle cx="955" cy="500" r="1" fill="white"/>
    <circle cx="845" cy="500" r="1" fill="white"/>
    <circle cx="860" cy="520" r="2" fill="white"/>
    <circle cx="940" cy="480" r="2" fill="white"/>
    
    <!-- Connection lines -->
    <line x1="450" y1="300" x2="600" y2="300" stroke="white" stroke-width="0.5" stroke-opacity="0.3"/>
    <line x1="600" y1="300" x2="720" y2="400" stroke="white" stroke-width="0.5" stroke-opacity="0.3"/>
    <line x1="600" y1="300" x2="800" y2="300" stroke="white" stroke-width="0.5" stroke-opacity="0.3"/>
    <line x1="720" y1="400" x2="800" y2="300" stroke="white" stroke-width="0.5" stroke-opacity="0.3"/>
    <line x1="720" y1="400" x2="450" y2="480" stroke="white" stroke-width="0.5" stroke-opacity="0.3"/>
    <line x1="800" y1="300" x2="900" y2="500" stroke="white" stroke-width="0.5" stroke-opacity="0.3"/>
    
    <!-- Additional scattered dots -->
    <circle cx="150" cy="150" r="2" fill="white"/>
    <circle cx="250" cy="350" r="1" fill="white"/>
    <circle cx="350" cy="150" r="2" fill="white"/>
    <circle cx="1050" cy="250" r="1" fill="white"/>
    <circle cx="1150" cy="450" r="2" fill="white"/>
    <circle cx="1250" cy="350" r="1" fill="white"/>
    <circle cx="950" cy="150" r="2" fill="white"/>
    <circle cx="1050" cy="650" r="1" fill="white"/>
    <circle cx="150" cy="550" r="2" fill="white"/>
    <circle cx="250" cy="650" r="1" fill="white"/>
    <circle cx="550" cy="550" r="1" fill="white"/>
    <circle cx="650" cy="650" r="2" fill="white"/>
    <circle cx="1250" cy="550" r="1" fill="white"/>
    <circle cx="1350" cy="350" r="2" fill="white"/>
  </g>
</svg> 